<?xml version="1.0" encoding="utf-8"?>
<!-- Generator: Adobe Illustrator 17.1.0, SVG Export Plug-In . SVG Version: 6.00 Build 0)  -->
<!DOCTYPE svg PUBLIC "-//W3C//DTD SVG 1.1//EN" "http://www.w3.org/Graphics/SVG/1.1/DTD/svg11.dtd">
<svg version="1.1" id="Layer_1" xmlns="http://www.w3.org/2000/svg" xmlns:xlink="http://www.w3.org/1999/xlink" x="0px" y="0px"
	 viewBox="0 0 300 300" enable-background="new 0 0 300 300" xml:space="preserve">
<g>
	<path fill="#EA4C89" d="M275.995,233.678c0,22-18,40-40,40h-170c-22,0-40-18-40-40v-170c0-22,18-40,40-40h170c22,0,40,18,40,40
		V233.678z"/>
</g>
<g>
	<g>
		<g>
			<path id="SVGID_7_" fill="#FFFFFF" d="M150.995,220c-39.38,0-71.418-31.995-71.418-71.322s32.038-71.322,71.418-71.322
				s71.417,31.995,71.417,71.322C222.413,188.005,190.376,220,150.995,220z M211.226,158.441c-2.087-0.658-18.881-5.66-37.997-2.604
				c7.979,21.896,11.226,39.729,11.851,43.435C198.765,190.031,208.507,175.392,211.226,158.441z M174.825,204.85
				c-0.907-5.345-4.449-23.972-13.013-46.198c-0.134,0.046-0.268,0.089-0.402,0.136c-34.407,11.973-46.758,35.802-47.856,38.043
				c10.343,8.055,23.341,12.86,37.443,12.86C159.447,209.691,167.501,207.965,174.825,204.85z M105.677,189.504
				c1.382-2.362,18.124-30.045,49.585-40.201c0.795-0.257,1.597-0.498,2.404-0.725c-1.532-3.461-3.199-6.926-4.946-10.339
				c-30.464,9.105-60.024,8.725-62.693,8.67c-0.019,0.618-0.031,1.238-0.031,1.861C89.995,164.418,95.934,178.704,105.677,189.504z
				 M91.283,136.294c2.728,0.036,27.861,0.145,56.395-7.422c-10.108-17.944-21.009-33.03-22.617-35.232
				C107.996,101.678,95.239,117.39,91.283,136.294z M136.701,89.544c1.686,2.255,12.765,17.322,22.761,35.663
				c21.692-8.119,30.874-20.445,31.971-22.006c-10.773-9.545-24.938-15.351-40.437-15.351
				C146.074,87.851,141.288,88.44,136.701,89.544z M198.215,110.247c-1.286,1.737-11.508,14.824-34.063,24.02
				c1.419,2.902,2.78,5.853,4.047,8.824c0.449,1.053,0.886,2.101,1.314,3.144c20.298-2.549,40.466,1.536,42.477,1.961
				C211.855,133.817,206.711,120.613,198.215,110.247z"/>
		</g>
	</g>
</g>
</svg>
