<?xml version="1.0" encoding="utf-8"?>
<!-- Generator: Adobe Illustrator 17.1.0, SVG Export Plug-In . SVG Version: 6.00 Build 0)  -->
<!DOCTYPE svg PUBLIC "-//W3C//DTD SVG 1.1//EN" "http://www.w3.org/Graphics/SVG/1.1/DTD/svg11.dtd">
<svg version="1.1" id="Layer_1" xmlns="http://www.w3.org/2000/svg" xmlns:xlink="http://www.w3.org/1999/xlink" x="0px" y="0px"
	 viewBox="0 0 300 300" enable-background="new 0 0 300 300" xml:space="preserve">
<g>
	<path d="M275,235c0,22-18,40-40,40H65c-22,0-40-18-40-40V65c0-22,18-40,40-40h170c22,0,40,18,40,40V235z"/>
</g>
<path fill="#FFFFFF" d="M149.997,79.528c-39.898,0-72.252,32.35-72.252,72.261c0,31.921,20.702,59.003,49.417,68.559
	c3.613,0.663,4.932-1.568,4.932-3.483c0-1.715-0.063-6.259-0.098-12.289c-20.099,4.367-24.34-9.686-24.34-9.686
	c-3.286-8.347-8.023-10.57-8.023-10.57c-6.56-4.483,0.496-4.392,0.496-4.392c7.251,0.511,11.068,7.446,11.068,7.446
	c6.446,11.042,16.911,7.853,21.029,6.004c0.656-4.67,2.523-7.853,4.587-9.66c-16.045-1.824-32.913-8.022-32.913-35.711
	c0-7.888,2.815-14.338,7.437-19.389c-0.743-1.828-3.223-9.174,0.708-19.122c0,0,6.067-1.943,19.87,7.407
	c5.763-1.603,11.945-2.404,18.089-2.432c6.136,0.028,12.318,0.829,18.089,2.432c13.795-9.35,19.85-7.407,19.85-7.407
	c3.942,9.948,1.462,17.295,0.719,19.122c4.631,5.051,7.427,11.501,7.427,19.389c0,27.758-16.894,33.866-32.991,35.655
	c2.594,2.231,4.906,6.641,4.906,13.381c0,9.66-0.089,17.453-0.089,19.822c0,1.932,1.301,4.18,4.968,3.475
	c28.687-9.574,49.372-36.638,49.372-68.551C222.258,111.878,189.903,79.528,149.997,79.528z"/>
</svg>
