<?xml version="1.0" encoding="utf-8"?>
<!-- Generator: Adobe Illustrator 17.1.0, SVG Export Plug-In . SVG Version: 6.00 Build 0)  -->
<!DOCTYPE svg PUBLIC "-//W3C//DTD SVG 1.1//EN" "http://www.w3.org/Graphics/SVG/1.1/DTD/svg11.dtd">
<svg version="1.1" id="Layer_1" xmlns="http://www.w3.org/2000/svg" xmlns:xlink="http://www.w3.org/1999/xlink" x="0px" y="0px"
	 viewBox="0 0 300 300" enable-background="new 0 0 300 300" xml:space="preserve">
<g>
	<path fill="#DD4B37" d="M274.995,235c0,22-18,40-40,40h-170c-22,0-40-18-40-40V65c0-22,18-40,40-40h170c22,0,40,18,40,40V235z"/>
</g>
<g id="g_x2B__copy_4">
	<g>
		<path fill="#FFFFFF" d="M165.827,82.923h-35.08c-4.655,0-9.643,0.545-14.964,1.632c-5.376,1.261-10.557,3.954-15.544,8.078
			c-7.26,7.048-10.891,14.896-10.891,23.547c0,7.162,2.562,13.434,7.686,18.819c4.895,5.787,12.013,8.737,21.35,8.851
			c1.764,0,3.643-0.114,5.636-0.344c-0.33,0.921-0.687,1.928-1.072,3.023c-0.44,1.037-0.659,2.334-0.659,3.889
			c0,2.593,0.576,4.812,1.731,6.655c0.989,1.902,2.116,3.688,3.381,5.358c-4.093,0.115-9.235,0.628-15.428,1.544
			c-6.251,1.086-12.22,3.259-17.901,6.52c-5.059,3.029-8.554,6.547-10.484,10.551c-1.989,4.003-2.984,7.635-2.984,10.895
			c0,6.691,3.059,12.438,9.174,17.243c6.059,5.147,15.233,7.777,27.519,7.893c14.676-0.23,25.908-3.753,33.691-10.572
			c7.505-6.59,11.258-14.153,11.258-22.69c-0.107-6.016-1.475-10.887-4.101-14.612c-2.787-3.667-6.031-7.017-9.729-10.055
			l-5.95-4.899c-0.858-0.86-1.743-1.861-2.654-3.009c-1.072-1.203-1.608-2.721-1.608-4.555c0-1.891,0.523-3.552,1.568-4.985
			c0.888-1.375,1.854-2.606,2.9-3.695c1.829-1.604,3.553-3.18,5.173-4.727c1.463-1.548,2.848-3.237,4.155-5.071
			c2.666-3.781,4.051-8.823,4.155-15.126c0-3.438-0.386-6.446-1.157-9.025c-0.937-2.578-2.01-4.812-3.222-6.703
			c-1.267-2.005-2.563-3.696-3.884-5.071c-1.377-1.317-2.616-2.32-3.718-3.008h10.817L165.827,82.923z M146.596,179.015
			c2.904,3.322,4.357,7.22,4.357,11.69c0,5.501-2.123,9.999-6.367,13.497c-4.356,3.553-10.667,5.386-18.933,5.502
			c-9.215-0.115-16.476-2.178-21.782-6.189c-5.586-4.013-8.377-9.113-8.377-15.302c0-3.153,0.642-5.846,1.926-8.081
			c1.118-2.121,2.485-3.898,4.105-5.33c1.675-1.375,3.322-2.436,4.943-3.18c1.619-0.689,2.875-1.204,3.77-1.548
			c3.797-1.147,7.511-1.977,11.142-2.492c3.686-0.344,5.976-0.459,6.871-0.344c1.508,0,2.82,0.056,3.937,0.172
			C138.721,171.994,143.524,175.861,146.596,179.015z M140.902,127.17c-0.424,2.355-1.378,4.651-2.863,6.889
			c-3.079,3.159-6.926,4.824-11.544,4.996c-3.655,0-6.904-1.118-9.746-3.358c-2.842-2.238-5.163-4.966-6.96-8.181
			c-3.714-6.889-5.57-13.522-5.57-19.895c-0.115-4.821,1.157-9.185,3.814-13.09c3.15-3.732,7.103-5.655,11.857-5.77
			c3.594,0.115,6.772,1.178,9.536,3.187c2.709,2.124,4.892,4.88,6.55,8.267c3.538,7.063,5.307,14.067,5.307,21.014
			C141.284,122.836,141.156,124.817,140.902,127.17z M200.882,138.436v-18.504h-9.252v18.504h-18.504v9.252h18.504v18.504h9.252
			v-18.504h18.504v-9.252H200.882z"/>
	</g>
</g>
</svg>
