<?xml version="1.0" encoding="utf-8"?>
<!-- Generator: Adobe Illustrator 17.1.0, SVG Export Plug-In . SVG Version: 6.00 Build 0)  -->
<!DOCTYPE svg PUBLIC "-//W3C//DTD SVG 1.1//EN" "http://www.w3.org/Graphics/SVG/1.1/DTD/svg11.dtd">
<svg version="1.1" id="Layer_1" xmlns="http://www.w3.org/2000/svg" xmlns:xlink="http://www.w3.org/1999/xlink" x="0px" y="0px"
	 viewBox="0 0 300 300" enable-background="new 0 0 300 300" xml:space="preserve">
<g>
	<path fill="#027BB6" d="M275.217,235c0,22-18,40-40,40h-170c-22,0-40-18-40-40V65c0-22,18-40,40-40h170c22,0,40,18,40,40V235z"/>
</g>
<g>
	<path fill="#FFFFFF" d="M84.814,127.324h28.044v90.192H84.814V127.324z M98.837,82.484c8.962,0,16.245,7.284,16.245,16.249
		c0,8.975-7.284,16.259-16.245,16.259c-8.986,0-16.249-7.284-16.249-16.259C82.589,89.768,89.852,82.484,98.837,82.484"/>
	<path fill="#FFFFFF" d="M130.439,127.324h26.892v12.318h0.383c3.743-7.089,12.889-14.567,26.527-14.567
		c28.365,0,33.605,18.675,33.605,42.97v49.471h-28v-43.859c0-10.466-0.205-23.919-14.571-23.919
		c-14.588,0-16.813,11.395-16.813,23.16v44.617h-28.023L130.439,127.324L130.439,127.324z"/>
</g>
</svg>
