<?xml version="1.0" encoding="utf-8"?>
<!-- Generator: Adobe Illustrator 17.1.0, SVG Export Plug-In . SVG Version: 6.00 Build 0)  -->
<!DOCTYPE svg PUBLIC "-//W3C//DTD SVG 1.1//EN" "http://www.w3.org/Graphics/SVG/1.1/DTD/svg11.dtd">
<svg version="1.1" id="Layer_1" xmlns="http://www.w3.org/2000/svg" xmlns:xlink="http://www.w3.org/1999/xlink" x="0px" y="0px"
	 viewBox="0 0 300 300" enable-background="new 0 0 300 300" xml:space="preserve">
<g>
	<path fill="#A42927" d="M275,235c0,22-18,40-40,40H65c-22,0-40-18-40-40V65c0-22,18-40,40-40h170c22,0,40,18,40,40V235z"/>
</g>
<path fill="#FFFFFF" d="M182.493,197.131c3.01,6.968,8.057,10.759,15.86,11.206c0.599,3.61,1.199,7.23,1.788,10.782
	c-11.626,6.338-24.093,1.314-36.089-14.436c-12.11,2.484-24.184,2.007-36.083-1.607c-17.565-5.335-29.846-16.492-35.541-34.005
	c-6.441-19.803-6.461-39.579,3.627-58.341c12.526-23.295,38.855-35.763,65.03-31.781c20.23,3.077,36.216,12.012,44.987,31.293
	c4.999,10.989,6.442,22.714,5.824,34.658C210.753,167.011,201.107,184.471,182.493,197.131z M173.986,179.548
	c1.895-4.417,4.075-8.254,5.217-12.378c4.521-16.325,4.289-32.754-0.005-49.098c-1.723-6.557-4.77-12.513-9.938-17.072
	c-13.568-11.968-34.455-7.915-43.848,8.478c-5.52,9.634-7.183,20.265-7.497,31.137c-0.324,11.218,0.364,22.317,4.794,32.897
	c6.342,15.148,22.382,19.261,34.793,15.714c-1.252-4.456-4.916-8.539-9.838-8.989c-4.758-0.435-5.572-2.897-5.637-6.7
	c-0.023-1.379-0.365-2.752-0.551-4.06C151.368,164.758,162.256,168.005,173.986,179.548z"/>
</svg>
