<?xml version="1.0" encoding="utf-8"?>
<!-- Generator: Adobe Illustrator 17.1.0, SVG Export Plug-In . SVG Version: 6.00 Build 0)  -->
<!DOCTYPE svg PUBLIC "-//W3C//DTD SVG 1.1//EN" "http://www.w3.org/Graphics/SVG/1.1/DTD/svg11.dtd">
<svg version="1.1" id="Layer_1" xmlns="http://www.w3.org/2000/svg" xmlns:xlink="http://www.w3.org/1999/xlink" x="0px" y="0px"
	 viewBox="0 0 300 300" enable-background="new 0 0 300 300" xml:space="preserve">
<g>
	<path fill="#188ECE" d="M272.5,235c0,22-18,40-40,40h-170c-22,0-40-18-40-40V65c0-22,18-40,40-40h170c22,0,40,18,40,40V235z"/>
</g>
<path fill="#FFFFFF" d="M213.948,117.754c-16.188,0.479-35.735-12.431-43.311-17.292c-0.703-0.45-1.419-0.866-2.145-1.243
	c-0.793-0.45-1.615-0.863-2.432-1.277v47.495h-0.024c0.029,4.252-1.215,8.736-3.829,13.036l-0.229,0.38
	c-7.569,12.436-23.493,19.685-38.429,14.559c-14.505-4.98-18.379-19.257-10.698-31.883l0.233-0.381
	c7.56-12.431,23.485-19.685,38.423-14.556c1.151,0.394,2.215,0.864,3.223,1.377V93.62c-5.346-1.47-11.018-2.312-16.995-2.312
	C103.166,91.308,77.5,117.603,77.5,150v0.422c0,32.396,25.46,58.27,59.822,58.27c34.564,0,60.235-26.295,60.235-58.692v-0.422
	c0-2.523-0.174-5.002-0.474-7.438C215.088,137.371,222.512,118.436,213.948,117.754z"/>
</svg>
