<?xml version="1.0" encoding="utf-8"?>
<!-- Generator: Adobe Illustrator 17.1.0, SVG Export Plug-In . SVG Version: 6.00 Build 0)  -->
<!DOCTYPE svg PUBLIC "-//W3C//DTD SVG 1.1//EN" "http://www.w3.org/Graphics/SVG/1.1/DTD/svg11.dtd">
<svg version="1.1" id="Layer_1" xmlns="http://www.w3.org/2000/svg" xmlns:xlink="http://www.w3.org/1999/xlink" x="0px" y="0px"
	 viewBox="0 0 300 300" enable-background="new 0 0 300 300" xml:space="preserve">
<g>
	<path fill="#CEE2F5" d="M274.865,235c0,22-18,40-40,40h-170c-22,0-40-18-40-40V65c0-22,18-40,40-40h170c22,0,40,18,40,40V235z"/>
</g>
<g>
	<circle fill="none" stroke="#000000" stroke-width="8" cx="200.626" cy="101.243" r="11.021"/>
	<g>
		<circle fill="#F15922" cx="127.489" cy="159.686" r="10.687"/>
		<circle fill="#F15922" cx="172.239" cy="159.686" r="10.687"/>
		<g>
			<path fill="none" stroke="#000000" stroke-width="8" d="M196.281,139.467c-11.697-8.11-28.313-13.178-46.75-13.178
				c-18.222,0-34.667,4.949-46.341,12.894c-8.853,6.025-14.96,13.774-17.016,22.395c-0.502,2.104-0.764,4.26-0.764,6.455
				c0,23.055,28.707,41.745,64.12,41.745s64.12-18.69,64.12-41.745c0-2.095-0.24-4.153-0.697-6.166"/>
			<path fill="none" stroke="#000000" stroke-width="8" d="M103.19,139.184c-2.631-2.986-6.473-4.879-10.766-4.879
				c-7.932,0-14.36,6.429-14.36,14.36c0,5.688,3.315,10.589,8.111,12.914C88.23,152.958,94.337,145.208,103.19,139.184z"/>
			<path fill="none" stroke="#000000" stroke-width="8" d="M221.665,148.665c0-7.932-6.428-14.36-14.36-14.36
				c-4.432,0-8.391,2.009-11.025,5.163c8.729,6.052,14.716,13.799,16.673,22.401C218.075,159.676,221.665,154.59,221.665,148.665z"
				/>
		</g>
		<polyline fill="none" stroke="#000000" stroke-width="8" points="150.198,126.29 160.551,92.338 189.788,99.252 		"/>
		<g>
			<path fill="none" stroke="#000000" stroke-width="8" stroke-linecap="round" stroke-linejoin="round" d="M127.494,187.072
				c13.422,9.433,31.318,9.433,44.74,0"/>
		</g>
	</g>
</g>
</svg>
