<?xml version="1.0" encoding="utf-8"?>
<!-- Generator: Adobe Illustrator 17.1.0, SVG Export Plug-In . SVG Version: 6.00 Build 0)  -->
<!DOCTYPE svg PUBLIC "-//W3C//DTD SVG 1.1//EN" "http://www.w3.org/Graphics/SVG/1.1/DTD/svg11.dtd">
<svg version="1.1" id="Layer_1" xmlns="http://www.w3.org/2000/svg" xmlns:xlink="http://www.w3.org/1999/xlink" x="0px" y="0px"
	 viewBox="0 0 300 300" enable-background="new 0 0 300 300" xml:space="preserve">
<g>
	<path fill="#36ADDC" d="M277,235.03c0,22-18,40-40,40H67c-22,0-40-18-40-40v-170c0-22,18-40,40-40h170c22,0,40,18,40,40V235.03z"/>
</g>
<path fill="#FFFFFF" d="M213.259,164.029c0.937-4.288,1.435-8.741,1.435-13.308c0-34.238-27.76-61.998-62.004-61.998
	c-3.613,0-7.159,0.31-10.602,0.906c-5.541-3.491-12.098-5.517-19.129-5.517C103.1,84.112,87,100.212,87,120.065
	c0,6.642,1.806,12.852,4.945,18.186c-0.821,4.033-1.259,8.199-1.259,12.469c0,34.244,27.76,62.004,62.004,62.004
	c3.881,0,7.676-0.359,11.356-1.04c5.061,2.719,10.845,4.264,16.994,4.264c19.859,0,35.959-16.094,35.959-35.953
	C217.001,174.26,215.65,168.841,213.259,164.029z M184.492,180.353c-2.868,4.059-7.106,7.275-12.597,9.558
	c-5.438,2.261-11.956,3.406-19.376,3.406c-8.905,0-16.371-1.567-22.198-4.658c-4.166-2.25-7.6-5.298-10.208-9.059
	c-2.634-3.799-3.97-7.568-3.97-11.203c0-2.271,0.87-4.241,2.586-5.854c1.698-1.598,3.875-2.407,6.471-2.407
	c2.13,0,3.968,0.639,5.461,1.902c1.427,1.21,2.652,2.999,3.635,5.31c1.098,2.517,2.297,4.641,3.562,6.315
	c1.215,1.61,2.965,2.963,5.2,4.019c2.248,1.064,5.278,1.604,9.005,1.604c5.125,0,9.327-1.095,12.489-3.253
	c3.088-2.108,4.588-4.638,4.588-7.736c0-2.448-0.783-4.372-2.394-5.881c-1.687-1.578-3.912-2.805-6.615-3.648
	c-2.819-0.879-6.645-1.826-11.376-2.817c-6.435-1.378-11.901-3.014-16.25-4.863c-4.446-1.892-8.03-4.514-10.651-7.796
	c-2.663-3.331-4.012-7.512-4.012-12.426c0-4.684,1.417-8.905,4.21-12.547c2.773-3.616,6.822-6.427,12.035-8.355
	c5.146-1.903,11.267-2.868,18.195-2.869c5.537,0,10.405,0.64,14.469,1.904c4.087,1.273,7.532,2.992,10.239,5.107
	c2.726,2.13,4.755,4.41,6.028,6.777c1.286,2.391,1.94,4.771,1.94,7.073c0,2.215-0.856,4.229-2.544,5.983
	c-1.698,1.766-3.84,2.661-6.368,2.661c-2.296,0-4.093-0.561-5.34-1.665c-1.16-1.025-2.364-2.625-3.7-4.925
	c-1.546-2.938-3.417-5.254-5.564-6.885c-2.083-1.585-5.565-2.389-10.351-2.389c-4.445,0-8.059,0.891-10.743,2.651
	c-2.586,1.696-3.843,3.64-3.843,5.943c0,1.413,0.405,2.594,1.237,3.61c0.881,1.077,2.123,2.021,3.695,2.807
	c1.63,0.819,3.309,1.469,4.991,1.934c1.723,0.479,4.615,1.187,8.579,2.103c5.017,1.077,9.629,2.284,13.706,3.587
	c4.129,1.322,7.697,2.951,10.606,4.844c2.97,1.934,5.321,4.418,6.99,7.383c1.673,2.976,2.521,6.649,2.521,10.918
	C188.829,171.624,187.37,176.279,184.492,180.353z"/>
</svg>
