<?xml version="1.0" encoding="utf-8"?>
<!-- Generator: Adobe Illustrator 17.1.0, SVG Export Plug-In . SVG Version: 6.00 Build 0)  -->
<!DOCTYPE svg PUBLIC "-//W3C//DTD SVG 1.1//EN" "http://www.w3.org/Graphics/SVG/1.1/DTD/svg11.dtd">
<svg version="1.1" id="Layer_1" xmlns="http://www.w3.org/2000/svg" xmlns:xlink="http://www.w3.org/1999/xlink" x="0px" y="0px"
	 viewBox="0 0 300 300" enable-background="new 0 0 300 300" xml:space="preserve">
<g>
	<path fill="#5DA9DD" d="M274.995,235c0,22-18,40-40,40h-170c-22,0-40-18-40-40V65c0-22,18-40,40-40h170c22,0,40,18,40,40V235z"/>
</g>
<path fill="#FFFFFF" d="M214.995,109.682c-4.783,2.121-9.923,3.555-15.319,4.2c5.507-3.301,9.736-8.528,11.727-14.756
	c-5.153,3.056-10.861,5.276-16.936,6.472c-4.865-5.184-11.797-8.423-19.468-8.423c-14.73,0-26.672,11.942-26.672,26.67
	c0,2.091,0.236,4.126,0.69,6.078c-22.166-1.112-41.819-11.73-54.973-27.867c-2.296,3.939-3.611,8.521-3.611,13.409
	c0,9.253,4.709,17.417,11.865,22.2c-4.372-0.138-8.484-1.338-12.081-3.336c-0.002,0.111-0.002,0.223-0.002,0.335
	c0,12.923,9.194,23.702,21.395,26.152c-2.238,0.609-4.594,0.935-7.027,0.935c-1.719,0-3.389-0.167-5.018-0.478
	c3.394,10.596,13.244,18.307,24.915,18.523c-9.128,7.153-20.628,11.417-33.124,11.417c-2.153,0-4.276-0.126-6.362-0.372
	c11.803,7.567,25.823,11.983,40.884,11.983c49.058,0,75.885-40.64,75.885-75.885c0-1.156-0.026-2.307-0.077-3.45
	C206.898,119.728,211.42,115.031,214.995,109.682z"/>
</svg>
